HIERARCHY
ROOT SpineBase
{
  OFFSET 0.000000 0.000000 0.000000
  CHANNELS 6 Xposition Yposition Zposition Zrotation Xrotation Yrotation
  JOINT SpineMid
  {
    OFFSET 0.000000 33.599335 0.000000
    CHANNELS 3 Zrotation Xrotation Yrotation
    JOINT SpineShoulder
    {
      OFFSET 0.044141 24.796729 -0.846482
      CHANNELS 3 Zrotation Xrotation Yrotation
      JOINT Neck
      {
        OFFSET 0.064257 8.143424 -0.603630
        CHANNELS 3 Zrotation Xrotation Yrotation
        JOINT Head
        {
          OFFSET -2.096316 13.391785 7.738928
          CHANNELS 3 Zrotation Xrotation Yrotation
          End Site
          {
            OFFSET 0 0 0
          }
        }
      }
      JOINT ShoulderLeft
      {
        OFFSET 9.092789 -5.159932 -13.443175
        CHANNELS 3 Zrotation Xrotation Yrotation
        JOINT ElbowLeft
        {
          OFFSET 5.068413 -26.365612 -5.882520
          CHANNELS 3 Zrotation Xrotation Yrotation
          JOINT WristLeft
          {
            OFFSET 5.814023 -21.496237 0.587660
            CHANNELS 3 Zrotation Xrotation Yrotation
            JOINT HandLeft
            {
              OFFSET 0.354075 -7.225047 -0.948789
              CHANNELS 3 Zrotation Xrotation Yrotation
              JOINT HandTipLeft
              {
                OFFSET 0.799029 -6.375939 -0.049640
                CHANNELS 3 Zrotation Xrotation Yrotation
                End Site
                {
                  OFFSET 0 0 0
                }
              }
              JOINT ThumbLeft
              {
                OFFSET 1.933561 -3.037867 -0.069517
                CHANNELS 3 Zrotation Xrotation Yrotation
                End Site
                {
                  OFFSET 0 0 0
                }
              }
            }
          }
        }
      }
      JOINT ShoulderRight
      {
        OFFSET 8.606379 -4.885032 15.704463
        CHANNELS 3 Zrotation Xrotation Yrotation
        JOINT ElbowRight
        {
          OFFSET 4.598962 -20.364448 -23.525561
          CHANNELS 3 Zrotation Xrotation Yrotation
          JOINT WristRight
          {
            OFFSET 5.747165 -27.922602 -11.245200
            CHANNELS 3 Zrotation Xrotation Yrotation
            JOINT HandRight
            {
              OFFSET 1.439436 -8.831429 -0.490680
              CHANNELS 3 Zrotation Xrotation Yrotation
              JOINT HandTipRight
              {
                OFFSET -0.379279 -6.694092 -0.003516
                CHANNELS 3 Zrotation Xrotation Yrotation
                End Site
                {
                  OFFSET 0 0 0
                }
              }
              JOINT ThumbRight
              {
                OFFSET -1.954123 -5.451159 -1.943368
                CHANNELS 3 Zrotation Xrotation Yrotation
                End Site
                {
                  OFFSET 0 0 0
                }
              }
            }
          }
        }
      }
    }
  }
  JOINT HipLeft
  {
    OFFSET 0.635506 0.456788 -4.142713
    CHANNELS 3 Zrotation Xrotation Yrotation
    JOINT KneeLeft
    {
      OFFSET -9.927014 -38.057612 2.741671
      CHANNELS 3 Zrotation Xrotation Yrotation
      JOINT AnkleLeft
      {
        OFFSET -0.762820 -35.360843 0.125070
        CHANNELS 3 Zrotation Xrotation Yrotation
        JOINT FootLeft
        {
          OFFSET 11.048857 -4.295477 -2.650212
          CHANNELS 3 Zrotation Xrotation Yrotation
          End Site
          {
            OFFSET 0 0 0
          }
        }
      }
    }
  }
  JOINT HipRight
  {
    OFFSET 0.484274 0.114748 -3.203498
    CHANNELS 3 Zrotation Xrotation Yrotation
    JOINT KneeRight
    {
      OFFSET 13.333477 -38.876322 0.814504
      CHANNELS 3 Zrotation Xrotation Yrotation
      JOINT AnkleRight
      {
        OFFSET 7.119474 -33.280842 8.675092
        CHANNELS 3 Zrotation Xrotation Yrotation
        JOINT FootRight
        {
          OFFSET 10.714603 -4.311893 -2.712139
          CHANNELS 3 Zrotation Xrotation Yrotation
          End Site
          {
            OFFSET 0 0 0
          }
        }
      }
    }
  }
}
MOTION
Frames: 8
Frame Time: 0.033333
-56.396836 83.131950 300.996146 -0.000000 0.000000 -99.147172 -0.000000 0.000000 99.147172 -0.000000 0.000000 0.000000 -0.000000 0.000000 0.000000 0.000000 0.000000 0.000000 -0.000000 0.000000 0.000000 -0.000000 0.000000 0.000000 -0.000000 0.000000 0.000000 -0.000000 0.000000 0.000000 0.000000 0.000000 0.000000 0.000000 0.000000 0.000000 -0.000000 0.000000 0.000000 -0.000000 0.000000 0.000000 -0.000000 0.000000 0.000000 -0.000000 0.000000 0.000000 0.000000 0.000000 0.000000 0.000000 0.000000 0.000000 -0.000000 0.000000 99.147172 -0.000000 0.000000 0.000000 -0.000000 0.000000 0.000000 0.000000 0.000000 0.000000 -0.000000 0.000000 99.147172 -0.000000 0.000000 0.000000 -0.000000 0.000000 0.000000 0.000000 0.000000 0.000000
-56.483354 83.225882 300.976309 -0.015534 -0.274661 -110.324980 -0.262955 -0.080835 110.324757 -0.000000 0.000000 0.000000 -0.000000 0.000000 0.000000 0.000000 0.000000 0.000000 -2.533813 -0.801704 0.395870 2.539529 0.783398 -0.430965 1.379836 -3.658716 -0.317641 -3.290345 0.562418 0.104650 0.000000 0.000000 0.000000 0.000000 0.000000 0.000000 -0.000000 0.000000 0.000000 -0.000000 0.000000 0.000000 1.875621 -2.964694 -0.538336 1.739161 5.659150 0.208078 0.000000 0.000000 0.000000 0.000000 0.000000 0.000000 -0.262955 -0.080835 110.324757 -0.000000 0.000000 0.000000 0.066884 -0.762108 -2.006165 0.000000 0.000000 0.000000 -0.262955 -0.080835 110.324757 -0.000000 0.000000 0.000000 0.065851 -0.802309 -2.040504 0.000000 0.000000 0.000000
-56.555452 83.305004 300.959575 -0.024985 -0.522093 -113.523588 -0.488679 -0.185470 113.522683 -0.000000 0.000000 0.000000 -0.000000 0.000000 0.000000 0.000000 0.000000 0.000000 -4.249367 -1.433042 0.626066 4.081337 0.539125 -0.961196 2.785445 -5.795066 -0.324760 -6.065441 0.775499 0.342091 0.000000 0.000000 0.000000 0.000000 0.000000 0.000000 -0.000000 0.000000 0.000000 -0.325786 0.814586 0.300499 4.248166 -7.084873 -1.261603 2.436950 10.909870 0.219514 0.000000 0.000000 0.000000 0.000000 0.000000 0.000000 -0.488679 -0.185470 113.522683 -0.000000 0.000000 0.000000 0.097754 -1.285161 -3.380051 0.000000 0.000000 0.000000 -1.396864 0.061905 113.785365 -0.592679 -0.731261 -0.267443 0.093103 -1.353544 -3.438612 0.000000 0.000000 0.000000
-56.613131 83.369317 300.945943 -0.028298 -0.741778 -114.031772 0.121687 0.044954 114.031859 -0.054788 -0.048867 0.000554 -0.011950 1.951221 0.221512 0.000000 0.000000 0.000000 -5.065521 -0.967087 0.795197 5.038179 0.462217 -1.246610 3.866585 -7.779826 -0.363257 -8.387400 0.812906 0.647491 0.000000 0.000000 0.000000 0.000000 0.000000 0.000000 0.091601 0.920090 -0.001207 -0.412870 1.032902 0.381496 6.543246 -10.823387 -1.668767 2.264715 15.722065 0.206917 0.000000 0.000000 0.000000 0.000000 0.000000 0.000000 0.075037 0.124345 114.259362 -0.051287 0.861159 -0.228036 0.109661 -1.560777 -4.103696 0.000000 0.000000 0.000000 -1.893332 -0.027508 114.383601 -0.723825 -0.994169 -0.363145 0.100016 -1.644317 -4.174501 0.000000 0.000000 0.000000
-56.656391 83.418820 300.935414 -0.025435 -0.933270 -113.046729 0.149512 0.056566 113.047322 -0.062976 -0.055518 0.001726 -0.041416 2.412211 0.276160 0.000000 0.000000 0.000000 -5.184121 -1.007867 0.777908 5.293281 0.167518 -1.387370 4.806841 -9.341829 -0.356452 -10.313776 0.793443 0.988877 0.000000 0.000000 0.000000 0.000000 0.000000 0.000000 0.094945 1.148507 -0.002979 -0.442389 1.110363 0.409722 8.867795 -14.480291 -1.891129 1.383403 20.007139 0.305198 0.000000 0.000000 0.000000 0.000000 0.000000 0.000000 0.052651 0.174522 113.327317 -0.109398 1.050589 -0.281038 0.111883 -1.585270 -4.168670 0.000000 0.000000 0.000000 -2.256789 -0.132438 113.462737 -0.744983 -1.189784 -0.432289 0.096568 -1.670560 -4.238867 0.000000 0.000000 0.000000
-56.685231 83.453513 300.927987 -0.016375 -1.096201 -110.841901 0.172300 0.063419 110.843291 -0.066074 -0.057289 0.003331 -0.083524 2.778626 0.321311 0.000000 0.000000 0.000000 -4.549487 -0.908946 0.622410 4.868897 -0.340345 -1.380062 5.643188 -10.574714 -0.319638 -11.897493 0.799027 1.352259 0.000000 0.000000 0.000000 0.000000 0.000000 0.000000 0.006227 0.394299 -0.127755 -0.337192 1.981487 0.511965 11.129094 -17.855810 -1.929184 -0.053415 23.625450 0.612675 0.000000 0.000000 0.000000 0.000000 0.000000 0.000000 0.014065 0.231427 111.164475 -0.188191 1.192763 -0.322835 0.105239 -1.358043 -3.573550 0.000000 0.000000 0.000000 -2.497220 -0.242563 111.297312 -0.656091 -1.318648 -0.474390 0.083669 -1.431771 -3.630304 0.000000 0.000000 0.000000
-56.704365 83.491184 300.933450 -0.008305 -1.175959 -109.236847 0.144789 0.069048 109.239174 -0.054508 -0.025996 0.005312 -0.131363 2.568301 0.287601 0.000000 0.000000 0.000000 -3.232311 -0.862163 0.313526 3.793145 -1.186510 -1.275205 7.142935 -11.735996 -0.271884 -13.088251 1.183571 1.864928 0.000000 0.000000 0.000000 0.000000 0.000000 0.000000 -0.141051 0.183162 -0.056779 0.185379 1.178428 0.049470 12.634255 -19.683083 -1.729558 -1.929594 25.758867 1.306645 0.000000 0.000000 0.000000 0.000000 0.000000 0.000000 -0.018451 0.266393 109.577143 -0.573393 0.381158 -0.318059 0.416232 -0.038897 -2.416523 0.000000 0.000000 0.000000 -2.585970 -0.398589 109.711449 -0.479103 -1.392931 -0.494201 0.056352 -0.958550 -2.426365 0.000000 0.000000 0.000000
-56.695917 83.488164 300.934164 0.004073 -1.250416 -104.073443 0.132537 0.062624 104.076702 -0.043878 0.000426 0.007093 -0.050181 2.560699 0.209006 0.000000 0.000000 0.000000 -0.980560 -0.588428 -0.163986 1.948572 -2.166935 -0.949385 8.041169 -12.830507 -0.198015 -15.260354 1.533496 2.524860 0.000000 0.000000 0.000000 0.000000 0.000000 0.000000 -0.292277 -0.013786 0.026698 0.304475 1.407422 -0.037071 14.507715 -22.488531 -1.608124 -4.643086 27.265701 2.498017 0.000000 0.000000 0.000000 0.000000 0.000000 0.000000 -0.099050 0.338052 104.418154 -0.652093 0.235968 -0.319926 2.569385 2.083651 1.222385 0.000000 0.000000 0.000000 -2.534970 -0.519243 104.520858 -0.127361 -1.333723 -0.461661 -0.000000 0.000000 0.000000 0.000000 0.000000 0.000000
